HIERARCHY
ROOT hip
{
	OFFSET 0.000000 0.000000 0.000000
	CHANNELS 6 Xposition Yposition Zposition Xrotation Zrotation Yrotation 
	JOINT abdomen
	{
		OFFSET 0.000000 3.422050 0.000000
		CHANNELS 3 Xrotation Zrotation Yrotation 
		JOINT chest
		{
			OFFSET 0.000000 8.486693 -0.684411
			CHANNELS 3 Xrotation Zrotation Yrotation 
			JOINT neck
			{
				OFFSET 0.000000 10.266162 -0.273764
				CHANNELS 3 Xrotation Zrotation Yrotation 
				JOINT head
				{
					OFFSET 0.000000 3.148285 0.000000
					CHANNELS 3 Xrotation Zrotation Yrotation 
					End Site
					{
						OFFSET 0.000000 3.148289 0.000000
					}
				}
			}
			JOINT lCollar
			{
				OFFSET 3.422053 6.707223 -0.821293
				CHANNELS 3 Yrotation Zrotation Xrotation 
				JOINT lShldr
				{
					OFFSET 3.285171 0.000000 0.000000
					CHANNELS 3 Zrotation Yrotation Xrotation 
					JOINT lForeArm
					{
						OFFSET 10.129278 0.000000 0.000000
						CHANNELS 3 Yrotation Zrotation Xrotation 
						JOINT lHand
						{
							OFFSET 8.486692 0.000000 0.000000
							CHANNELS 3 Zrotation Yrotation Xrotation 
							End Site
							{
								OFFSET 4.106464 0.000000 0.000000
							}
						}
					}
				}
			}
			JOINT rCollar
			{
				OFFSET -3.558935 6.707223 -0.821293
				CHANNELS 3 Yrotation Zrotation Xrotation 
				JOINT rShldr
				{
					OFFSET -3.148289 0.000000 0.000000
					CHANNELS 3 Zrotation Yrotation Xrotation 
					JOINT rForeArm
					{
						OFFSET -10.266159 0.000000 0.000000
						CHANNELS 3 Yrotation Zrotation Xrotation 
						JOINT rHand
						{
							OFFSET -8.349810 0.000000 0.000000
							CHANNELS 3 Zrotation Yrotation Xrotation 
							End Site
							{
								OFFSET -4.106464 0.000000 0.000000
							}
						}
					}
				}
			}
		}
	}
	JOINT lThigh
	{
		OFFSET 5.338403 -1.642589 1.368821
		CHANNELS 3 Xrotation Zrotation Yrotation 
		JOINT lShin
		{
			OFFSET -2.053232 -20.121670 0.000000
			CHANNELS 3 Xrotation Zrotation Yrotation 
			JOINT lFoot
			{
				OFFSET 0.000000 -19.300380 -1.231939
				CHANNELS 3 Xrotation Yrotation Zrotation 
				End Site
				{
					OFFSET 0.000000 -2.463878 4.653993
				}
			}
		}
	}
	JOINT rThigh
	{
		OFFSET -5.338403 -1.642589 1.368821
		CHANNELS 3 Xrotation Zrotation Yrotation 
		JOINT rShin
		{
			OFFSET 2.053232 -20.121670 0.000000
			CHANNELS 3 Xrotation Zrotation Yrotation 
			JOINT rFoot
			{
				OFFSET 0.000000 -19.300380 -1.231939
				CHANNELS 3 Xrotation Yrotation Zrotation 
				End Site
				{
					OFFSET 0.000000 -2.463878 4.653993
				}
			}
		}
	}
}
MOTION
Frames: 18
Frame Time: 0.055442
0.000000 43.528500 0.000000 0.000000 0.000000 0.000000 0.000000 0.000000 0.000000 0.000000 0.000000 0.000000 0.000000 0.000000 0.000000 0.000000 0.000000 0.000000 0.000000 0.000000 0.000000 0.000000 0.000000 0.000000 0.000000 0.000000 0.000000 0.000000 0.000000 0.000000 0.000000 0.000000 0.000000 0.000000 0.000000 0.000000 0.000000 0.000000 0.000000 0.000000 0.000000 0.000000 0.000000 0.000000 0.000000 0.000000 0.000000 0.000000 0.000000 0.000000 0.000000 0.000000 0.000000 0.000000 0.000000 0.000000 0.000000 0.000000 0.000000 0.000000 
0.000000 4.831345 1.360691 -75.004013 0.000000 0.000000 18.540285 0.000000 0.000000 -17.743086 -0.119053 -0.637990 8.879304 0.000000 0.000000 -10.254972 0.000000 0.000000 12.737594 18.377983 19.969269 -86.966042 34.568737 -3.738250 -79.044334 -4.380026 33.903442 -16.334007 0.978393 31.916456 -12.611053 -19.028709 19.712477 86.917717 -34.743813 -3.722915 79.315033 4.377781 33.911007 16.557949 -1.055752 31.905384 -75.247360 34.446827 -40.062965 104.847832 -1.765498 -0.364747 19.421177 2.663115 -5.452432 -46.003368 -60.001396 29.999687 51.998901 0.998634 -0.001256 20.117538 -2.929317 6.677959 
0.000000 4.831345 1.285097 -75.835228 0.000000 0.000000 18.817867 0.000000 0.000000 -15.717433 -0.119144 -0.638043 8.987994 0.100311 0.026060 -9.820018 0.000000 0.000000 12.668715 17.373167 18.879658 -86.376198 34.349628 -3.460821 -78.819138 -4.137160 33.916851 -15.820134 0.899846 31.459295 -12.553271 -17.990044 18.634760 86.328537 -34.515049 -3.444978 79.074615 4.134851 33.924679 16.031734 -0.972266 31.449278 -74.470627 34.905254 -39.697838 104.847832 -1.765498 -0.364747 19.375635 2.614869 -4.871288 -44.137753 -60.001507 29.999762 50.673958 1.053174 0.009703 20.031559 -2.870755 6.028301 
0.000000 4.831345 1.209503 -76.667145 0.000000 0.000000 19.095480 0.000000 0.000000 -13.681356 -0.119233 -0.638099 9.096765 0.200603 0.052318 -9.384622 0.000000 0.000000 12.580031 16.366993 17.791555 -85.788986 34.128105 -3.186759 -78.594017 -3.894212 33.929298 -15.305360 0.825361 31.001181 -12.475158 -16.949667 17.559055 85.742104 -34.283878 -3.170559 78.834290 3.891827 33.937317 15.504567 -0.892928 30.992172 -73.685349 35.359901 -39.322781 104.847832 -1.765498 -0.364747 19.330570 2.566144 -4.289967 -42.264038 -60.001606 29.999847 49.346115 1.108071 0.019417 19.946209 -2.811192 5.378424 
0.000000 4.831345 1.133909 -77.499687 0.000000 0.000000 19.373108 0.000000 0.000000 -11.636079 -0.119321 -0.638158 9.205613 0.300876 0.078775 -8.948798 0.000000 0.000000 12.471692 15.360151 16.704603 -85.204414 33.904209 -2.916088 -78.368988 -3.651186 33.940796 -14.789740 0.754961 30.542185 -12.376904 -15.908295 16.484970 85.158463 -34.050327 -2.899692 78.594048 3.648720 33.948933 14.976508 -0.817761 30.534105 -72.891449 35.810581 -38.937698 104.847832 -1.765498 -0.364747 19.285992 2.516947 -3.708494 -40.383156 -60.001724 29.999905 48.015747 1.163284 0.027872 19.861507 -2.750638 4.728374 
0.000000 4.831345 1.058315 -78.332748 0.000000 0.000000 19.650761 0.000000 0.000000 -9.582840 -0.119406 -0.638221 9.314545 0.401128 0.105431 -8.512560 0.000000 0.000000 12.343881 14.353364 15.618472 -84.622520 33.677986 -2.648813 -78.144058 -3.408095 33.951332 -14.273357 0.688668 30.082384 -12.258682 -14.866653 15.412112 84.577591 -33.814442 -2.632370 78.353912 3.405546 33.959530 14.447635 -0.746790 30.075174 -72.088799 36.257099 -38.542469 104.847832 -1.765498 -0.364747 19.241905 2.467285 -3.126902 -38.496105 -60.001846 29.999971 46.683174 1.218769 0.035053 19.777468 -2.689103 4.078192 
0.000000 4.831345 0.982721 -79.166260 0.000000 0.000000 19.928429 0.000000 0.000000 -7.522925 -0.119490 -0.638287 9.423555 0.501360 0.132286 -8.075913 0.000000 0.000000 12.196759 13.347347 14.532838 -84.043266 33.449467 -2.384949 -77.919205 -3.164943 33.960907 -13.756269 0.626501 29.621834 -12.120687 -13.825484 14.340119 83.999527 -33.576286 -2.368609 78.113846 3.162306 33.969105 13.918012 -0.680034 29.615427 -71.277351 36.699299 -38.137028 104.847832 -1.765498 -0.364747 19.198311 2.417166 -2.545217 -36.603882 -60.001976 30.000036 45.348770 1.274481 0.040949 19.694109 -2.626600 3.427921 
0.000000 4.831345 0.907127 -80.000122 0.000000 0.000000 20.206108 0.000000 0.000000 -5.457636 -0.119571 -0.638356 9.532646 0.601571 0.159340 -7.638877 0.000000 0.000000 12.030495 12.342810 13.447371 -83.466721 33.218700 -2.124509 -77.694420 -2.921739 33.969524 -13.238550 0.568477 29.160604 -11.963094 -12.785518 13.268628 83.424263 -33.335873 -2.108421 77.873856 2.919009 33.977650 13.387718 -0.617515 29.154961 -70.456963 37.136967 -37.721245 104.847832 -1.765498 -0.364747 19.155226 2.366597 -1.963473 -34.707481 -60.002094 30.000080 44.012890 1.330377 0.045549 19.611458 -2.563139 2.777606 
0.000000 4.831345 0.831533 -80.834244 0.000000 0.000000 20.483797 0.000000 0.000000 -3.388298 -0.119650 -0.638428 9.641822 0.701759 0.186593 -7.201459 0.000000 0.000000 11.845254 11.340469 12.361778 -82.892868 32.985733 -1.867506 -77.469704 -2.678489 33.977188 -12.720267 0.514614 28.698772 -11.786088 -11.747496 12.197289 82.851822 -33.093285 -1.851811 77.633949 2.675666 33.985172 12.856819 -0.559248 28.693823 -69.627586 37.569931 -37.295067 104.847839 -1.765498 -0.364747 19.112648 2.315585 -1.381696 -32.807934 -60.002201 30.000114 42.675888 1.386410 0.048848 19.529512 -2.498732 2.127287 
0.000000 4.831345 0.755939 -81.668549 0.000000 0.000000 20.761496 0.000000 0.000000 -1.316252 -0.119726 -0.638503 9.751077 0.801924 0.214046 -6.763672 0.000000 0.000000 11.641213 10.341043 11.275756 -82.321724 32.750603 -1.613943 -77.245079 -2.435206 33.983898 -12.201498 0.464925 28.236412 -11.589850 -10.712149 11.125772 82.282227 -32.848541 -1.598779 77.394112 2.432287 33.991695 12.325395 -0.505251 28.232105 -68.789162 37.998016 -36.858421 104.847832 -1.765498 -0.364747 19.070589 2.264138 -0.799919 -30.906288 -60.002312 30.000141 41.338127 1.442536 0.050838 19.448298 -2.433392 1.477007 
0.000000 4.831345 0.680346 -82.502937 0.000000 0.000000 21.039198 0.000000 0.000000 0.757152 -0.119800 -0.638581 9.860414 0.902064 0.241698 -6.325532 0.000000 0.000000 11.418545 9.345245 10.189028 -81.753311 32.513359 -1.363830 -77.020493 -2.191891 33.989647 -11.682306 0.419422 27.773584 -11.374559 -9.680214 10.053748 81.715439 -32.601688 -1.349340 77.154335 2.188881 33.997177 11.793513 -0.455536 27.769869 -67.941574 38.420998 -36.411205 104.847839 -1.765498 -0.364747 19.029058 2.212265 -0.218169 -29.003593 -60.002434 30.000162 39.999973 1.498709 0.051517 19.367834 -2.367131 0.826809 
0.000000 4.831345 0.604752 -83.337334 0.000000 0.000000 21.316896 0.000000 0.000000 2.830555 -0.119871 -0.638662 9.969833 1.002181 0.269551 -5.887044 0.000000 0.000000 11.177431 8.353792 9.101329 -81.187614 32.274044 -1.117171 -76.795967 -1.948560 33.994442 -11.162767 0.378116 27.310366 -11.140401 -8.652425 8.980915 81.151497 -32.352787 -1.103486 76.914619 1.945450 34.001648 11.261251 -0.410116 27.307194 -67.084808 38.838715 -35.953381 104.847824 -1.765498 -0.364747 18.988052 2.159973 0.363523 -27.100899 -60.002571 30.000185 38.661770 1.554881 0.050884 19.288124 -2.299961 0.176735 
0.000000 4.831345 0.529158 -84.171638 0.000000 0.000000 21.594593 0.000000 0.000000 4.902601 -0.119939 -0.638745 10.079338 1.102272 0.297603 -5.448228 0.000000 0.000000 10.918054 7.367386 8.012405 -80.624657 32.032692 -0.873975 -76.571510 -1.705216 33.998287 -10.642951 0.341016 26.846827 -10.887564 -7.629514 7.906984 80.590385 -32.101860 -0.861221 76.674942 1.702009 34.005085 10.728684 -0.369000 26.844156 -66.218773 39.250961 -35.484890 104.847832 -1.765498 -0.364747 18.947586 2.107270 0.945127 -25.199234 -60.002678 30.000185 37.323914 1.611009 0.048939 19.209196 -2.231898 -0.473170 
0.000000 4.831345 0.453564 -85.005760 0.000000 0.000000 21.872282 0.000000 0.000000 6.971940 -0.120003 -0.638830 10.188924 1.202336 0.325855 -5.009093 0.000000 0.000000 10.640598 6.386735 6.922019 -80.064461 31.789368 -0.634240 -76.347099 -1.461864 34.001171 -10.122934 0.308129 26.383047 -10.616235 -6.612202 6.831674 80.032112 -31.848970 -0.622543 76.435333 1.458560 34.007515 10.195885 -0.332196 26.380829 -65.343460 39.657566 -35.005692 104.847832 -1.765498 -0.364747 18.907656 2.054165 1.526614 -23.299658 -60.002804 30.000185 35.986732 1.667045 0.045686 19.131058 -2.162953 -1.122867 
0.000000 4.831345 0.377970 -85.839615 0.000000 0.000000 22.149967 0.000000 0.000000 9.037229 -0.120065 -0.638917 10.298594 1.302374 0.354308 -4.569653 0.000000 0.000000 10.345253 5.412530 5.829946 -79.506966 31.544092 -0.397963 -76.122749 -1.218518 34.003113 -9.602784 0.279458 25.919090 -10.326604 -5.601207 5.754725 79.476700 -31.594160 -0.387459 76.195778 1.215122 34.008930 9.662931 -0.299710 25.917288 -64.458832 40.058311 -34.515747 104.847832 -1.765498 -0.364747 18.868284 2.000667 2.107954 -21.403208 -60.002918 30.000172 34.650623 1.722945 0.041129 19.053724 -2.093141 -1.772312 
0.000000 4.831345 0.302376 -86.673134 0.000000 0.000000 22.427633 0.000000 0.000000 11.097143 -0.120123 -0.639007 10.408344 1.402384 0.382960 -4.129919 0.000000 0.000000 10.032226 4.445462 4.735984 -78.952278 31.296930 -0.165155 -75.898399 -0.975176 34.004086 -9.082574 0.255009 25.455029 -10.018866 -4.597236 4.675889 78.924126 -31.337475 -0.155960 75.956261 0.971692 34.009323 9.129899 -0.271546 25.453613 -63.564835 40.453018 -34.015026 104.847832 -1.765498 -0.364747 18.829460 1.946783 2.689117 -19.510908 -60.003029 30.000151 33.315910 1.778662 0.035277 18.977215 -2.022476 -2.421465 
0.000000 4.831345 0.226782 -87.506203 0.000000 0.000000 22.705284 0.000000 0.000000 13.150381 -0.120177 -0.639098 10.518184 1.502366 0.411814 -3.689904 0.000000 0.000000 9.701720 3.486210 3.639943 -78.400299 31.047905 0.064191 -75.674126 -0.731860 34.004116 -8.562378 0.234781 24.990936 -9.693225 -3.600992 3.594943 78.374390 -31.078959 0.071963 75.716782 0.728291 34.008694 8.596858 -0.247707 24.989870 -62.661514 40.841515 -33.503536 104.847839 -1.765498 -0.364747 18.791201 1.892523 3.270075 -17.623783 -60.003159 30.000132 31.982973 1.834153 0.028138 18.901539 -1.950973 -3.070283 
0.000000 4.831345 0.151188 -88.338730 0.000000 0.000000 22.982916 0.000000 0.000000 15.195658 -0.120229 -0.639190 10.628106 1.602318 0.440868 -3.249621 0.000000 0.000000 9.353943 2.535438 2.541649 -77.851074 30.797081 0.290076 -75.449867 -0.488566 34.003189 -8.042270 0.218775 24.526892 -9.349886 -2.613162 2.511674 77.827469 -30.818651 0.296307 75.477318 0.484912 34.007050 8.063888 -0.228191 24.526136 -61.748825 41.223572 -32.981266 104.847816 -1.765498 -0.364747 18.753508 1.837895 3.850798 -15.742820 -60.003265 30.000093 30.652151 1.889372 0.019724 18.826704 -1.878647 -3.718724 
